<svg version="1.1" id="Layer_1" xmlns="http://www.w3.org/2000/svg" xmlns:xlink="http://www.w3.org/1999/xlink" x="0px" y="0px"
	 width="100%" viewBox="0 0 496 496" enable-background="new 0 0 496 496" xml:space="preserve">
<path fill="#000000" opacity="1.000000" stroke="none" 
	d="
M384.921844,309.146423 
	C376.074280,312.526489 367.257050,314.246216 358.209320,314.296143 
	C333.543518,314.432159 308.876526,314.365906 284.210022,314.367889 
	C283.047180,314.367981 281.877167,314.313446 280.723511,314.175659 
	C279.598724,314.041351 278.984558,313.331543 278.901306,312.176880 
	C278.799133,310.760040 279.470093,309.989929 280.848633,309.798950 
	C283.649170,309.410980 286.478943,309.169769 289.245209,308.612732 
	C294.317047,307.591400 297.110016,304.092651 297.754669,298.922150 
	C299.080261,288.289856 298.628143,277.620880 298.503845,266.969513 
	C298.455078,262.795624 299.901337,261.453888 303.992584,261.582306 
	C311.984741,261.833160 319.993683,261.799408 327.988647,261.600922 
	C331.793488,261.506470 332.753815,262.881012 332.604309,266.603607 
	C332.249969,275.423859 332.339081,284.265045 332.379608,293.097137 
	C332.422363,302.411469 336.933563,306.402924 346.300415,305.615967 
	C361.913269,304.304321 372.300262,293.429199 372.893494,277.773193 
	C373.685059,256.883820 363.231079,245.814941 341.337646,244.361115 
	C335.872955,243.998230 335.032532,242.912888 335.669556,237.713791 
	C335.920807,235.663147 336.810150,234.835083 338.811035,234.672546 
	C341.293060,234.470947 343.765808,234.083984 346.223419,233.664948 
	C360.816162,231.176819 368.644775,220.903732 368.480011,206.684311 
	C368.298645,191.035355 359.500763,181.662827 344.662659,180.425095 
	C340.924347,180.113266 337.156372,178.718384 332.986084,179.953812 
	C331.967285,189.632553 333.327576,199.257324 332.918457,208.857605 
	C332.762512,212.517517 332.831177,216.188675 332.858246,219.854248 
	C332.882202,223.098984 331.673676,224.551117 328.098175,224.439178 
	C320.106201,224.188995 312.100739,224.385223 304.100800,224.367554 
	C298.424469,224.355011 297.807312,223.744781 298.151794,218.020416 
	C298.773071,207.697067 298.948242,197.395187 297.824890,187.082062 
	C297.072723,180.176666 294.545349,177.257675 287.763489,176.235413 
	C285.623352,175.912827 283.483154,175.583496 281.334717,175.326126 
	C279.832214,175.146133 278.792908,174.631210 278.879547,172.875977 
	C278.969604,171.050858 280.259308,170.816559 281.651306,170.732513 
	C282.648499,170.672318 283.650024,170.666992 284.649628,170.667084 
	C308.649506,170.669373 332.649658,170.612671 356.649109,170.717957 
	C364.316132,170.751602 371.944000,171.643280 379.317749,173.839355 
	C396.249969,178.882233 407.146118,195.613693 404.315918,212.118530 
	C402.830200,220.782700 397.531403,226.783417 390.322357,231.265594 
	C385.490082,234.269989 380.153137,236.173279 373.730682,237.930542 
	C379.755798,240.093536 385.027649,241.794968 390.153503,243.858963 
	C414.071289,253.489746 415.692841,279.202179 405.714569,293.570496 
	C400.613678,300.915558 393.531128,305.765259 384.921844,309.146423 
z"/>
<path fill="#000000" opacity="1.000000" stroke="none" 
	d="
M187.144836,177.810379 
	C179.465958,176.397049 172.204483,176.099365 164.987579,178.065628 
	C147.485092,182.834274 138.870193,195.734146 134.848999,212.165436 
	C129.505386,234.000366 129.369034,255.951050 135.317657,277.790497 
	C143.635284,308.327240 172.101303,313.058563 194.139832,305.740112 
	C196.457779,304.970428 197.702972,303.605347 197.682114,300.998688 
	C197.599426,290.668427 197.739716,280.335052 197.533356,270.008087 
	C197.482025,267.438782 196.442108,264.889282 195.774857,261.973541 
	C208.928558,261.973541 221.835632,261.973541 234.965988,261.973541 
	C231.623505,274.633881 233.616379,287.253815 233.291672,299.770477 
	C233.185318,303.869843 231.928635,305.997955 227.998138,307.507172 
	C202.090179,317.454956 175.380508,321.924896 148.278610,315.034515 
	C114.520844,306.451996 88.830688,278.913849 91.805244,237.846512 
	C94.544540,200.027039 126.450462,169.545105 163.925400,167.479919 
	C180.448792,166.569351 195.966187,169.123444 211.161179,175.387756 
	C220.502045,179.238632 221.827652,178.535004 227.144547,169.746002 
	C228.158539,168.069809 229.271744,167.269119 231.146042,167.624130 
	C233.143219,168.002426 233.145966,169.645203 233.149750,171.135223 
	C233.186569,185.631668 233.197800,200.128220 233.182678,214.624710 
	C233.180954,216.273453 233.276810,218.121490 231.009079,218.527573 
	C228.427277,218.989914 227.488983,217.246872 226.759888,215.256195 
	C223.148514,205.396103 217.785858,196.683060 209.849747,189.694443 
	C203.369232,183.987640 196.019089,179.888901 187.144836,177.810379 
z"/>
<path fill="#000000" opacity="1.000000" stroke="none" 
	d="
M235.238663,241.591873 
	C236.650253,244.335037 237.026566,246.760361 234.955902,248.844879 
	C232.818634,250.996445 229.996567,250.333145 227.366562,250.221771 
	C226.251511,250.174545 225.422165,249.490158 225.279236,248.408112 
	C224.711090,244.107193 224.468628,239.746170 225.419449,235.512695 
	C226.022095,232.829407 228.643509,233.773666 230.507523,233.739059 
	C232.904877,233.694550 234.796387,234.682938 235.198730,237.264450 
	C235.399399,238.552078 235.150253,239.909790 235.238663,241.591873 
M228.674820,244.120575 
	C228.060547,245.967392 228.120773,247.479019 230.583191,247.598602 
	C232.119919,247.673233 233.463318,246.847504 233.295532,245.373718 
	C233.002640,242.801208 231.071320,242.971298 228.674820,244.120575 
z"/>
<path fill="#000000" opacity="1.000000" stroke="none" 
	d="
M181.641541,248.306320 
	C177.629898,242.588882 178.001907,238.188934 182.443756,235.053589 
	C186.249207,232.367462 191.840179,233.263184 194.419830,236.998428 
	C194.889511,237.678528 195.286057,238.433884 194.615402,239.555038 
	C193.197678,240.292938 192.500214,238.850174 191.596603,238.079163 
	C188.726639,235.630325 185.797211,235.478409 183.235153,238.297134 
	C180.804047,240.971771 181.195740,243.928558 183.842773,246.198639 
	C186.668106,248.621597 189.507431,248.262177 192.064636,245.473190 
	C190.825531,243.686264 188.535507,245.155151 187.385513,243.113571 
	C189.983917,240.985886 192.700989,241.758347 195.439804,242.455826 
	C195.134415,249.936081 189.099213,252.571198 181.641541,248.306320 
z"/>
<path fill="#000000" opacity="1.000000" stroke="none" 
	d="
M249.065063,250.079117 
	C244.544083,247.648911 242.804489,244.112823 243.961807,239.523163 
	C244.801361,236.193695 247.180588,234.185150 250.682755,233.699234 
	C256.093140,232.948532 260.423737,236.224854 260.915894,241.440186 
	C261.368713,246.238663 257.661499,250.222946 252.382492,250.521118 
	C251.404434,250.576370 250.408829,250.320633 249.065063,250.079117 
M246.553024,240.971939 
	C246.988037,245.823715 249.318008,248.273804 253.111832,247.602219 
	C256.690033,246.968826 258.026215,244.507126 257.683502,241.068436 
	C257.437653,238.601349 255.721375,237.184540 253.554199,236.603043 
	C250.287506,235.726517 248.185898,237.461853 246.553024,240.971939 
z"/>
<path fill="#000000" opacity="1.000000" stroke="none" 
	d="
M274.548157,233.896332 
	C282.814514,233.490860 287.423828,237.919357 285.569824,244.061783 
	C284.336548,248.147797 281.556580,250.602249 277.236755,250.594727 
	C273.177124,250.587662 270.176971,248.376358 269.053528,244.515793 
	C267.655029,239.709946 269.565491,236.114105 274.548157,233.896332 
M282.288666,244.591736 
	C283.109558,239.013885 280.636261,235.666306 276.224243,236.437500 
	C273.640167,236.889175 272.077026,238.549866 271.530396,241.030640 
	C270.952393,243.653839 272.205231,245.665405 274.390747,246.886185 
	C277.252930,248.484955 279.841949,247.841461 282.288666,244.591736 
z"/>
<path fill="#000000" opacity="1.000000" stroke="none" 
	d="
M212.421051,235.960526 
	C213.888489,240.794449 216.752899,244.797073 217.445053,251.078140 
	C212.751877,246.746063 208.552277,242.964569 204.880966,250.923111 
	C203.728958,247.070923 206.822571,238.283951 210.302734,233.735809 
	C211.545746,233.752396 211.771881,234.841324 212.421051,235.960526 
z"/>
<path fill="#000000" opacity="1.000000" stroke="none" 
	d="
M314.807404,247.304718 
	C316.929657,247.909164 318.724365,248.333069 320.246155,246.371429 
	C319.759064,243.433716 316.949677,243.661987 315.029999,242.757065 
	C312.793243,241.702713 310.828064,240.362976 311.204010,237.598984 
	C311.533752,235.174545 313.331635,233.849380 315.726044,233.728745 
	C318.427063,233.592697 321.431366,233.197571 322.289948,237.223557 
	C319.732788,238.740051 316.845490,233.869156 314.752747,237.862000 
	C314.986633,239.992508 316.935852,240.071365 318.363556,240.673813 
	C320.859741,241.727112 323.509552,242.605072 323.217773,246.064194 
	C322.987640,248.792618 321.165192,250.171951 318.664886,250.584885 
	C315.400879,251.123932 312.491852,250.656235 310.961731,247.268738 
	C312.378784,245.193649 313.412384,246.548096 314.807404,247.304718 
z"/>
<path fill="#000000" opacity="1.000000" stroke="none" 
	d="
M298.637817,236.854691 
	C299.761139,235.328140 300.521576,233.746750 303.665314,233.997910 
	C299.960358,239.325012 297.677307,244.593887 304.610718,249.508240 
	C299.916718,250.832214 299.486237,247.295181 297.414459,246.167465 
	C295.845490,246.843613 297.392761,249.430099 294.549744,250.146042 
	C293.019012,244.788589 293.843292,239.548340 294.005219,234.835815 
	C297.853180,232.966721 295.427551,238.537094 298.637817,236.854691 
z"/>
</svg>