<?xml version="1.0" standalone="no"?>
<!DOCTYPE svg PUBLIC "-//W3C//DTD SVG 20010904//EN"
 "http://www.w3.org/TR/2001/REC-SVG-20010904/DTD/svg10.dtd">
<svg version="1.0" xmlns="http://www.w3.org/2000/svg"
 width="32" height="32" viewBox="0 0 225.000000 225.000000"
 preserveAspectRatio="xMidYMid meet">

<g transform="translate(0.000000,225.000000) scale(0.100000,-0.100000)"
fill="#000000" stroke="none">
<path d="M147 1910 c-122 -37 -181 -198 -114 -312 68 -116 225 -142 324 -55
119 104 86 301 -59 361 -40 17 -106 19 -151 6z"/>
<path d="M662 1833 c-104 -51 -104 -206 0 -253 41 -19 71 -20 750 -20 782 0
764 -1 810 63 32 44 31 121 -1 166 -45 63 -19 61 -808 61 -641 0 -722 -2 -751
-17z"/>
<path d="M119 1313 c-75 -39 -112 -100 -113 -187 -1 -87 36 -150 113 -188 148
-75 311 23 311 187 0 164 -163 262 -311 188z"/>
<path d="M660 1252 c-36 -19 -80 -88 -80 -127 0 -39 44 -108 80 -127 33 -17
77 -18 753 -18 795 0 762 -3 810 64 30 43 30 119 0 162 -48 67 -15 64 -810 64
-676 0 -720 -1 -753 -18z"/>
<path d="M119 732 c-186 -97 -135 -377 73 -399 68 -7 117 8 165 50 119 104 86
301 -59 361 -57 24 -118 20 -179 -12z"/>
<path d="M662 670 c-77 -35 -103 -139 -51 -211 43 -61 18 -59 803 -59 788 0
762 -2 807 61 32 45 33 122 1 166 -46 64 -28 63 -810 63 -679 0 -709 -1 -750
-20z"/>
</g>
</svg>
