<?xml version="1.0" standalone="no"?>
<!DOCTYPE svg PUBLIC "-//W3C//DTD SVG 20010904//EN"
 "http://www.w3.org/TR/2001/REC-SVG-20010904/DTD/svg10.dtd">
<svg version="1.0" xmlns="http://www.w3.org/2000/svg"
 width="32" height="32" viewBox="0 0 500.000000 500.000000"
 preserveAspectRatio="xMidYMid meet">

<g transform="translate(0.000000,500.000000) scale(0.100000,-0.100000)"
fill="#000000" stroke="none">
<path d="M2231 4164 c-442 -60 -844 -255 -1164 -563 -438 -423 -666 -981 -644
-1576 12 -312 80 -579 219 -853 61 -120 194 -332 209 -332 5 0 9 20 9 45 0
145 40 360 85 450 66 137 151 186 413 240 256 53 389 105 555 217 31 21 57 34
57 29 0 -24 69 -86 124 -112 108 -51 189 -64 406 -64 224 0 305 14 420 71 53
27 76 45 92 73 l22 38 80 -52 c161 -104 274 -147 528 -200 255 -53 341 -100
406 -222 50 -95 92 -304 92 -463 0 -27 4 -50 9 -50 17 0 171 251 225 365 128
272 190 518 202 805 37 830 -429 1606 -1181 1966 -126 61 -300 122 -430 152
-219 51 -515 66 -734 36z m494 -279 c129 -34 329 -149 409 -235 89 -95 133
-233 156 -489 9 -103 15 -129 36 -160 64 -97 28 -354 -64 -449 -19 -20 -55
-79 -78 -130 -90 -198 -243 -386 -392 -483 -98 -64 -180 -89 -291 -89 -155 1
-279 59 -421 200 -100 99 -180 215 -250 361 -32 67 -60 113 -79 127 -38 28
-77 109 -96 197 -27 126 -15 233 31 276 22 20 24 31 24 108 0 245 68 456 180
557 68 62 232 157 325 189 136 47 376 56 510 20z"/>
</g>
</svg>
