<?xml version="1.0" standalone="no"?>
<!DOCTYPE svg PUBLIC "-//W3C//DTD SVG 20010904//EN"
 "http://www.w3.org/TR/2001/REC-SVG-20010904/DTD/svg10.dtd">
<svg version="1.0" xmlns="http://www.w3.org/2000/svg"
 width="32" height="32" viewBox="0 0 512.000000 512.000000"
 preserveAspectRatio="xMidYMid meet">

<g transform="translate(0.000000,512.000000) scale(0.100000,-0.100000)"
fill="#000000" stroke="none">
<path d="M2315 5109 c-800 -83 -1501 -518 -1927 -1196 -604 -961 -490 -2237
274 -3068 425 -462 951 -737 1583 -827 119 -17 512 -16 635 1 623 86 1150 361
1572 821 352 383 572 859 650 1405 17 118 17 512 0 630 -70 492 -250 916 -544
1284 -93 117 -272 296 -393 394 -360 290 -782 474 -1250 543 -123 18 -478 26
-600 13z m-216 -1430 c147 -37 264 -105 388 -222 l73 -70 73 70 c124 118 239
183 392 224 112 30 298 30 409 0 240 -64 439 -226 546 -445 63 -129 75 -187
74 -366 0 -147 -2 -160 -32 -250 -57 -171 -130 -280 -309 -457 -249 -247
-1041 -927 -1109 -953 -39 -15 -92 -4 -134 28 -114 86 -587 489 -830 707 -379
341 -494 490 -556 720 -26 96 -27 332 -1 425 43 158 154 328 278 427 213 169
480 228 738 162z"/>
<path d="M1756 3424 c-154 -37 -308 -159 -374 -298 -87 -179 -74 -390 35 -570
78 -128 402 -431 967 -904 93 -78 172 -142 176 -142 10 0 372 304 600 504 257
226 497 464 543 541 147 247 119 523 -73 715 -149 149 -341 202 -544 150 -117
-30 -169 -63 -306 -196 -148 -143 -163 -154 -212 -154 -62 0 -86 16 -222 148
-75 72 -153 139 -183 155 -114 61 -280 82 -407 51z"/>
</g>
</svg>
