<?xml version="1.0" standalone="no"?>
<!DOCTYPE svg PUBLIC "-//W3C//DTD SVG 20010904//EN"
 "http://www.w3.org/TR/2001/REC-SVG-20010904/DTD/svg10.dtd">
<svg version="1.0" xmlns="http://www.w3.org/2000/svg"
 width="26" height="32" viewBox="0 0 512.000000 512.000000"
 preserveAspectRatio="xMidYMid meet">

<g transform="translate(0.000000,512.000000) scale(0.100000,-0.100000)"
fill="#000000" stroke="none">
<path d="M2370 5114 c-705 -63 -1321 -376 -1762 -894 -311 -365 -507 -805
-585 -1310 -24 -161 -24 -539 0 -700 110 -715 459 -1300 1025 -1718 327 -241
722 -401 1162 -469 161 -24 539 -24 700 0 440 68 835 228 1162 469 566 418
915 1003 1025 1718 24 161 24 539 0 700 -56 360 -170 684 -342 970 -400 664
-1053 1096 -1835 1215 -101 15 -455 27 -550 19z m355 -1059 c98 -20 237 -92
312 -160 72 -65 152 -179 183 -262 12 -32 30 -98 41 -147 10 -49 23 -94 29
-100 7 -7 110 -12 310 -14 l299 -3 30 -28 c16 -15 32 -39 35 -52 3 -13 34
-494 70 -1069 l63 -1045 -20 -43 c-11 -25 -34 -52 -51 -63 -30 -18 -74 -19
-1467 -19 l-1437 0 -30 28 c-17 16 -34 42 -38 58 -4 16 22 508 58 1094 70
1151 65 1102 124 1128 17 8 114 12 302 12 323 0 323 0 335 75 31 192 84 303
202 421 134 135 295 202 490 203 50 0 122 -6 160 -14z"/>
<path d="M2498 3598 c-75 -20 -168 -129 -154 -181 9 -38 52 -47 216 -47 164 0
207 9 216 47 14 55 -80 161 -161 182 -51 13 -66 13 -117 -1z"/>
<path d="M1625 2890 c-16 -17 -22 -89 -56 -617 -21 -329 -39 -627 -40 -662 -3
-111 -109 -101 1025 -101 1113 0 1026 -7 1026 80 0 50 -64 1085 -76 1218 -8
97 -14 102 -123 102 -124 0 -121 4 -121 -199 0 -257 -8 -266 -236 -266 -139 0
-155 2 -181 21 -43 32 -52 72 -52 250 -1 143 -3 163 -19 177 -16 15 -46 17
-214 17 -176 0 -196 -2 -211 -18 -14 -16 -17 -44 -18 -178 0 -176 -9 -216 -52
-248 -26 -19 -42 -21 -181 -21 -229 0 -236 8 -236 268 0 202 3 197 -127 197
-77 0 -92 -3 -108 -20z"/>
</g>
</svg>
